# xmcd CD database file
#
# Track frame offsets:
#	150
#	14339
#	29155
#	44909
#	59056
#	73299
#	86112
#	96144
#	109972
#	125222
#	140852
#	153588
#	169562
#	184012
#	202642
#	218434
#
# Disc length: 3106 seconds
#
# Revision: 0
# Processed by: cddbd v1.5.2PL0 Copyright (c) Steve Scherf et al.
# Submitted via: CDex 1.50beta10
#
DISCID=f90c2010
DTITLE=Kikki Danielson - På Begäran
DYEAR=2000
DGENRE=Country
TTITLE0=Vet du vad jag vet
TTITLE1=Nogon däruppe
TTITLE2=Get to the church
TTITLE3=Caribian life
TTITLE4=Langt bortom bergen
TTITLE5=Vad som än händer
TTITLE6=I'm gonna knock on your door
TTITLE7=Blå vackra ögon
TTITLE8=En allra sista dans
TTITLE9=När du viskar mitt namn
TTITLE10=En cowboy från Oklahoma
TTITLE11=Har du kommit for at stanna?
TTITLE12=Som en sol
TTITLE13=Jag hör din røst
TTITLE14=Vi har hunnit fram till refrängen
TTITLE15=Det finns ingen annan än du
EXTD=YEAR: 2000
EXTT0=
EXTT1=
EXTT2=
EXTT3=
EXTT4=
EXTT5=
EXTT6=
EXTT7=
EXTT8=
EXTT9=
EXTT10=
EXTT11=
EXTT12=
EXTT13=
EXTT14=
EXTT15=
PLAYORDER=
